PathFileType	4	(x/y/z)	S04_P20_T04.trc
DataRate	CameraRate	NumFrames	NumMarkers	Units	OrigDataRate	OrigDataStartFrame	OrigNumFrames
240	240	4	51	mm	240	135	358
Frame#	Time	Sternum			R.Acromium			L.Acromium			Top.Head			R.ASIS			L.ASIS			R.PSIS			L.PSIS			R.Great.Tro			L.Great.Tro			R.Iliac.Crest			L.Iliac.Crest			V.Sacral			R.Thigh.Upper.Post			R.Thigh.Lower.Ant			R.Thigh.Lower.Post			R.Thigh.Upper.Ant			R.Knee.Lat			R.Knee.Med			R.Shank.Upper.Post			R.Shank.Lower.Ant			R.Shank.Lower.Post			R.Shank.Upper.Ant			R.Ankle.Lat			R.Ankle.Med			R.Heel.Upper			R.Heel.Med			R.Heel.Lat			R.Toe.Lat			R.Toe.Med			R.Toe.Tip			L.Thigh.Upper.Post			L.Thigh.Lower.Ant			L.Thigh.Lower.Post			L.Thigh.Upper.Ant			L.Knee.Lat			L.Knee.Med			L.Shank.Upper.Post			L.Shank.Lower.Ant			L.Shank.Lower.Post			L.Shank.Upper.Ant			L.Ankle.Lat			L.Ankle.Med			L.Heel.Upper			L.Heel.Med			L.Heel.Lat			L.Toe.Lat			L.Toe.Med			L.Toe.Tip			Cervical.Spine			Back			
		X1	Y1	Z1	X2	Y2	Z2	X3	Y3	Z3	X4	Y4	Z4	X5	Y5	Z5	X6	Y6	Z6	X7	Y7	Z7	X8	Y8	Z8	X9	Y9	Z9	X10	Y10	Z10	X11	Y11	Z11	X12	Y12	Z12	X13	Y13	Z13	X14	Y14	Z14	X15	Y15	Z15	X16	Y16	Z16	X17	Y17	Z17	X18	Y18	Z18	X19	Y19	Z19	X20	Y20	Z20	X21	Y21	Z21	X22	Y22	Z22	X23	Y23	Z23	X24	Y24	Z24	X25	Y25	Z25	X26	Y26	Z26	X27	Y27	Z27	X28	Y28	Z28	X29	Y29	Z29	X30	Y30	Z30	X31	Y31	Z31	X32	Y32	Z32	X33	Y33	Z33	X34	Y34	Z34	X35	Y35	Z35	X36	Y36	Z36	X37	Y37	Z37	X38	Y38	Z38	X39	Y39	Z39	X40	Y40	Z40	X41	Y41	Z41	X42	Y42	Z42	X43	Y43	Z43	X44	Y44	Z44	X45	Y45	Z45	X46	Y46	Z46	X47	Y47	Z47	X48	Y48	Z48	X49	Y49	Z49	X50	Y50	Z50	X51	Y51	Z51	

135	0.55833	-633.97	1255.3	273.14	-747.13	1489.2	448.76	-762.92	1471.8	99.738	-640.2	1800.4	251.59	-661.46	982.05	399.22	-687.5	992.45	153.49	-885.32	1009.3	326.39	-883.64	1015.1	245.53	-734.57	901.36	473.88	-816.97	911.04	98.678	-748.15	1069	452.94	-782.59	1075.8	117.46	-904.41	970.17	287.06	-661.63	650.29	451.57	-567.53	597.98	406.93	-633.97	565.4	431.82	-591.86	702.95	434.69	-585.83	513.94	418.48	-622.88	500.39	290.87	-599.6	276.37	417.24	-519.4	219.41	368.15	-582.99	209.18	401.55	-537.7	286.19	393.7	-543.91	101.71	377.3	-530.38	121.7	287.4	-599.08	62.994	319.92	-582.59	35.98	289.49	-587.09	31.651	353.71	-421.46	65.388	399.13	-390.09	81.679	284.12	-335.22	118.4	330.63	-857.8	681.44	114.51	-789.05	576.22	109.53	-858.37	592.11	123.7	-792.91	666.24	98.301	-842.81	493.02	122.75	-825.08	474.51	245.72	-1008.3	382.04	138.31	-993.17	272.26	134.43	-1042	313.01	146.73	-958.84	340.78	124.91	-1092	150.33	163.15	-1077.5	161.77	253.88	-1171.9	155.34	212.51	-1174.1	132.01	247.39	-1180.8	127.87	186.41	-1022.6	45.999	144.93	-985.09	45.864	259.48	-932.81	41.697	209.86	-799.46	1540.9	278.51	-895.26	1282.9	262.23
136	0.5625	-628.11	1255.3	273.64	-741.65	1489	449.43	-757.54	1471.7	100.41	-634.97	1800.4	252.22	-655.16	982	399.6	-681.36	992.36	153.89	-879.24	1009	326.82	-877.51	1014.6	245.9	-728.23	901.19	474.14	-810.47	910.56	98.967	-741.76	1068.7	453.33	-776.66	1075.6	117.81	-898.24	969.74	287.47	-655.49	650.21	451.61	-561.59	597.67	406.78	-628.02	565.28	431.91	-585.67	702.75	434.42	-580.11	513.53	418.37	-617.99	500	291.06	-595.73	276.04	417.41	-516.31	218.26	367.91	-579.81	208.68	401.72	-533.86	285.27	393.49	-542.06	100.93	377.37	-528.4	120.76	287.31	-598.07	63.572	320.13	-582.23	36.242	289.59	-586.65	31.94	353.83	-420.23	62.819	398.67	-388.96	78.678	283.57	-333.24	114.4	329.92	-849.38	680.2	114.14	-779.76	575.61	108.32	-849.15	590.83	122.99	-784.4	665.64	97.57	-832.92	492.28	121.67	-814.45	473.1	244.5	-999.85	384.02	137.77	-986.63	274.08	133.6	-1034.7	315.6	146.17	-951.08	342.04	124.07	-1087.3	153.74	162.42	-1072.3	165.16	253.05	-1166.6	161.52	211.97	-1169.5	138.7	247.15	-1176.6	134.27	186.16	-1021.6	47.08	144.94	-983.8	46.681	259.34	-932.32	41.349	209.82	-794.08	1540.7	279.23	-889.46	1282.5	262.86
137	0.56667	-622.27	1255.4	274.13	-736.15	1488.8	450.09	-752.19	1471.6	101.07	-629.77	1800.4	252.84	-648.93	982	399.98	-675.26	992.29	154.3	-873.21	1008.7	327.24	-871.42	1014.2	246.25	-721.97	901.09	474.43	-803.97	910.08	99.265	-735.43	1068.6	453.72	-770.78	1075.5	118.16	-892.13	969.34	287.86	-649.38	650.2	451.72	-555.68	597.43	406.71	-622.12	565.21	432.09	-579.54	702.61	434.22	-574.45	513.16	418.34	-613.07	499.67	291.3	-591.92	275.76	417.64	-513.28	217.19	367.75	-576.72	208.25	401.94	-530.11	284.4	393.36	-540.3	100.22	377.48	-526.46	119.93	287.29	-597.11	64.159	320.36	-581.87	36.554	289.71	-586.24	32.24	353.96	-419.08	60.338	398.32	-387.88	75.819	283.13	-331.34	110.51	329.35	-840.85	678.94	113.74	-770.3	575.02	107.08	-839.76	589.55	122.23	-775.78	665.05	96.794	-822.78	491.56	120.54	-803.55	471.7	243.26	-991.1	386.08	137.19	-979.78	275.98	132.74	-1027	318.25	145.58	-943	343.36	123.22	-1082.3	157.31	161.66	-1066.7	168.68	252.19	-1161	167.95	211.4	-1164.6	145.66	246.87	-1172	140.94	185.87	-1020.5	48.341	144.93	-982.36	47.642	259.17	-931.72	41.006	209.73	-788.69	1540.5	279.95	-883.67	1282.2	263.49
138	0.57083	-616.45	1255.5	274.58	-730.63	1488.7	450.74	-746.85	1471.6	101.72	-624.58	1800.5	253.47	-642.76	982.05	400.37	-669.2	992.24	154.7	-867.24	1008.5	327.63	-865.38	1013.8	246.58	-715.8	901.05	474.73	-797.5	909.57	99.572	-729.16	1068.4	454.1	-764.93	1075.3	118.5	-886.08	968.98	288.23	-643.33	650.25	451.9	-549.83	597.27	406.71	-616.25	565.22	432.34	-573.47	702.54	434.1	-568.84	512.84	418.38	-608.13	499.41	291.61	-588.19	275.55	417.93	-510.33	216.18	367.65	-573.7	207.88	402.2	-526.42	283.59	393.3	-538.63	99.589	377.64	-524.59	119.2	287.33	-596.21	64.747	320.61	-581.53	36.905	289.84	-585.86	32.546	354.12	-418.03	57.962	398.05	-386.86	73.114	282.79	-329.55	106.76	328.91	-832.21	677.67	113.32	-760.69	574.48	105.8	-830.23	588.27	121.45	-767.05	664.5	95.98	-812.4	490.85	119.4	-792.39	470.33	242.01	-982.01	388.19	136.57	-972.61	277.97	131.86	-1019.1	320.98	144.96	-934.62	344.74	122.35	-1077	161.05	160.86	-1060.9	172.31	251.28	-1154.9	174.58	210.78	-1159.2	152.86	246.56	-1167	147.86	185.54	-1019.2	49.795	144.89	-980.72	48.762	258.95	-930.98	40.675	209.59	-783.3	1540.4	280.66	-877.9	1281.9	264.12
